# xmcd CD database file
#
# Track frame offsets:
#	150
#	36404
#	65131
#	95477
#	136791
#	157093
#
# Disc length: 2555 seconds
#
# Revision: 0
# Processed by: cddbd v1.5.2PL0 Copyright (c) Steve Scherf et al.
# Submitted via: CDex 1.70beta3
#
DISCID=5309f906
DTITLE=Yusef Lateef - Club Date
DYEAR=1964
DGENRE=Jazz
TTITLE0=Oscarlypso
TTITLE1=Gee Sam Gee
TTITLE2=Rogi
TTITLE3=Brother John
TTITLE4=P-Bouk
TTITLE5=Nu-Bouk
EXTD=YEAR: 1964
EXTT0=
EXTT1=
EXTT2=
EXTT3=
EXTT4=
EXTT5=
PLAYORDER=
